<svg width="299" height="190" viewBox="0 0 299 190" fill="none" xmlns="http://www.w3.org/2000/svg">
<path fill-rule="evenodd" clip-rule="evenodd" d="M131.976 7.81154e-05L151.92 0L151.921 168.969H168.173V188.969H145.5H131.976V7.81154e-05ZM3.32841 76.2632H70.5125L1.84429 173.295C-2.81878 179.884 1.89482 189 10.0026 189H89.7591H103.056V169.105H89.7591H29.2236L97.8917 72.0732C102.56 65.477 97.8328 56.3684 89.7335 56.3684H3.32841V76.2632ZM238.269 189.358C230.07 189.358 222.279 187.968 214.899 185.187C207.519 182.242 201.042 177.989 195.466 172.428C190.054 166.866 185.791 159.914 182.674 151.571C180.675 146.219 179.317 140.362 178.601 134H201.298C201.664 136.931 202.18 139.762 202.846 142.493C204.321 148.545 206.618 153.862 209.733 158.442C212.85 163.021 216.786 166.539 221.541 168.992C226.298 171.446 231.873 172.673 238.269 172.673C244.665 172.673 250.241 171.446 254.997 168.992C259.916 166.539 263.852 163.021 266.804 158.442C269.921 153.862 272.216 148.545 273.692 142.493C274.433 139.762 275.006 136.931 275.412 134H298.183C297.467 140.362 296.109 146.219 294.11 151.571C290.994 159.914 286.649 166.866 281.072 172.428C275.497 177.989 269.018 182.242 261.638 185.187C254.423 187.968 246.633 189.358 238.269 189.358ZM298.41 114C297.778 106.754 296.345 100.139 294.11 94.1552C290.994 85.8126 286.649 78.8606 281.072 73.2988C275.497 67.7372 269.018 63.5659 261.638 60.7851C254.423 57.8406 246.633 56.3684 238.269 56.3684C230.07 56.3684 222.279 57.8406 214.899 60.7851C207.519 63.5659 201.042 67.7372 195.466 73.2988C190.054 78.8606 185.791 85.8126 182.674 94.1552C180.439 100.139 179.006 106.754 178.374 114H201.047C201.409 110.254 202.009 106.665 202.846 103.234C204.321 97.1814 206.618 91.8651 209.733 87.2848C212.85 82.7047 216.786 79.1877 221.541 76.734C226.298 74.2803 231.873 73.0535 238.269 73.0535C244.665 73.0535 250.241 74.2803 254.997 76.734C259.916 79.1877 263.852 82.7047 266.804 87.2848C269.921 91.8651 272.216 97.1814 273.692 103.234C274.622 106.665 275.288 110.254 275.691 114H298.41ZM92.7591 114H115.432V134H92.7591V114Z" fill="white"/>
</svg>
