<svg width="471" height="72" viewBox="0 0 471 72" fill="none" xmlns="http://www.w3.org/2000/svg">
<path d="M140.127 0.699997H150.127V45.2C150.127 49.2 150.894 52.5333 152.427 55.2C153.961 57.8 156.061 59.7333 158.727 61C161.394 62.2 164.394 62.8 167.727 62.8C171.127 62.8 174.127 62.2 176.727 61C179.394 59.7333 181.494 57.8 183.027 55.2C184.561 52.5333 185.327 49.2 185.327 45.2V0.699997H195.327V45C195.327 49.5333 194.561 53.4667 193.027 56.8C191.561 60.0667 189.494 62.8 186.827 65C184.227 67.1333 181.261 68.7333 177.927 69.8C174.661 70.8667 171.227 71.4 167.627 71.4C162.827 71.4 158.327 70.4667 154.127 68.6C149.927 66.6667 146.527 63.7667 143.927 59.9C141.394 55.9667 140.127 51 140.127 45V0.699997Z" fill="white"/>
<path d="M206.842 35.7C206.842 30.4333 207.742 25.6333 209.542 21.3C211.342 16.9 213.842 13.1333 217.042 10C220.242 6.8 223.942 4.33333 228.142 2.6C232.409 0.866665 237.009 0 241.942 0C248.942 0 255.176 1.63333 260.642 4.9C266.176 8.16667 270.376 12.8667 273.242 19L265.242 21.9C263.642 18.7667 261.609 16.2333 259.142 14.3C256.676 12.3667 253.976 10.9333 251.042 10C248.109 9.06666 245.142 8.6 242.142 8.6C237.409 8.6 233.109 9.7 229.242 11.9C225.442 14.1 222.442 17.2333 220.242 21.3C218.109 25.3667 217.042 30.1667 217.042 35.7C217.042 41.1667 218.109 45.9333 220.242 50C222.442 54.0667 225.442 57.2333 229.242 59.5C233.109 61.7 237.409 62.8 242.142 62.8C245.209 62.8 248.242 62.3 251.242 61.3C254.242 60.3 257.042 58.7 259.642 56.5C262.242 54.2333 264.376 51.3 266.042 47.7L274.042 50.5C271.042 57.5667 266.742 62.8333 261.142 66.3C255.542 69.7 249.142 71.4 241.942 71.4C237.009 71.4 232.409 70.5333 228.142 68.8C223.942 67.0667 220.242 64.6 217.042 61.4C213.842 58.2 211.342 54.4333 209.542 50.1C207.742 45.7 206.842 40.9 206.842 35.7Z" fill="white"/>
<path d="M287.109 0.699997H297.109V31H332.309V0.699997H342.209V70.7H332.309V39.4H297.109V70.7H287.109V0.699997Z" fill="white"/>
<path d="M404.905 9.1H368.105V31H395.705V39.4H368.105V62.3H404.905V70.7H358.105V0.699997H404.905V9.1Z" fill="white"/>
<path d="M458.95 21.6C458.95 17.8 457.817 14.7667 455.55 12.5C453.283 10.2333 449.683 9.1 444.75 9.1H428.75V34H444.85C448.117 34 450.783 33.5 452.85 32.5C454.917 31.4333 456.45 29.9667 457.45 28.1C458.45 26.2333 458.95 24.0667 458.95 21.6ZM444.75 0.699997C450.283 0.699997 454.817 1.66667 458.35 3.6C461.95 5.46667 464.617 7.96667 466.35 11.1C468.15 14.2333 469.05 17.7333 469.05 21.6C469.05 24.1333 468.617 26.6333 467.75 29.1C466.883 31.5667 465.483 33.8333 463.55 35.9C461.617 37.9 459.083 39.5 455.95 40.7C452.883 41.8333 449.183 42.4 444.85 42.4H428.75V70.7H418.75V0.699997H444.75ZM451.15 39L470.45 70.7H459.15L440.55 39H451.15Z" fill="white"/>
<path fill-rule="evenodd" clip-rule="evenodd" d="M34.1 32.5C32.0333 33.5 29.3667 34 26.1 34C26.1 34 16.2874 34 10 34C6.09476 34 0 34 0 34V70.7H10V42.4H26.1C30.4333 42.4 34.1333 41.8333 37.2 40.7C40.3333 39.5 42.8667 37.9 44.8 35.9C46.7333 33.9 48.1333 31.6667 49 29.2C49.8667 26.6667 50.3 24.1333 50.3 21.6C50.3 17.8 49.4 14.3333 47.6 11.2C45.8667 8 43.2 5.46667 39.6 3.6C36.0667 1.66667 31.5667 0.699997 26.1 0.699997H0V9.1H10H26.1C31.0333 9.1 34.6333 10.2 36.9 12.4C39.1667 14.6 40.3 17.6667 40.3 21.6C40.3 24.0667 39.8 26.2333 38.8 28.1C37.8 29.9667 36.2333 31.4333 34.1 32.5Z" fill="white"/>
<path d="M68.507 10C65.307 13.2 62.807 16.9667 61.007 21.3C59.7936 24.2213 58.9892 27.3546 58.5937 30.7H68.8175C69.275 27.1874 70.2382 24.0541 71.707 21.3C73.907 17.2333 76.907 14.1 80.707 11.9C84.507 9.7 88.807 8.6 93.607 8.6C98.3404 8.6 102.574 9.7 106.307 11.9C110.107 14.1 113.107 17.2333 115.307 21.3C116.822 24.0541 117.815 27.1874 118.287 30.7H128.42C128.025 27.3546 127.22 24.2213 126.007 21.3C124.207 16.9667 121.707 13.2 118.507 10C115.307 6.8 111.574 4.33333 107.307 2.6C103.04 0.866665 98.4737 0 93.607 0C88.6737 0 84.0404 0.866665 79.707 2.6C75.4404 4.33333 71.707 6.8 68.507 10Z" fill="white"/>
<path d="M79.707 68.8C84.0404 70.5333 88.6737 71.4 93.607 71.4C98.4737 71.4 103.04 70.5333 107.307 68.8C111.574 67.0667 115.307 64.6333 118.507 61.5C121.707 58.3 124.207 54.5333 126.007 50.2C127.222 47.2307 128.027 44.064 128.422 40.7H118.281C117.807 44.1781 116.816 47.3115 115.307 50.1C113.107 54.1667 110.107 57.3 106.307 59.5C102.574 61.7 98.3404 62.8 93.607 62.8C88.807 62.8 84.507 61.7 80.707 59.5C76.907 57.3 73.907 54.1667 71.707 50.1C70.2442 47.3115 69.2829 44.1781 68.8231 40.7H58.5925C58.9875 44.064 59.7923 47.2307 61.007 50.2C62.807 54.5333 65.307 58.3 68.507 61.5C71.707 64.6333 75.4404 67.0667 79.707 68.8Z" fill="white"/>
<path d="M93.7247 25.7002C93.5837 25.7523 93.5609 25.78 93.4841 25.9075C93.4378 26.0275 93.4017 26.1502 93.3654 26.2736C93.3543 26.3104 93.3432 26.3472 93.3317 26.3851C93.3078 26.4648 93.2839 26.5445 93.2602 26.6242C93.2227 26.7506 93.1847 26.8768 93.1466 27.0031C93.0302 27.3889 92.9153 27.7751 92.8015 28.1617C92.7553 28.3182 92.7089 28.4746 92.6623 28.6311C92.6303 28.7393 92.5989 28.8477 92.5675 28.9561C92.2751 29.9495 91.8124 30.8535 91.191 31.6804C91.1622 31.7193 91.1333 31.7582 91.1037 31.7983C90.6688 32.3567 90.1372 32.8776 89.5531 33.2772C89.5267 33.2954 89.5004 33.3136 89.4733 33.3323C88.5889 33.9379 87.6268 34.323 86.6023 34.6266C86.4811 34.6626 86.36 34.6991 86.239 34.7356C85.8788 34.8442 85.5181 34.951 85.1564 35.0545C85.016 35.0946 84.8758 35.1352 84.7355 35.1758C84.6389 35.2035 84.542 35.2304 84.4452 35.2572C84.3865 35.2741 84.3279 35.291 84.2693 35.3079C84.2189 35.322 84.1685 35.3362 84.1165 35.3508C83.9653 35.4141 83.884 35.4859 83.7794 35.611C83.7563 35.7159 83.7563 35.7159 83.7794 35.8157C83.9022 35.9663 84.0147 36.0148 84.1993 36.0687C84.2373 36.08 84.2373 36.08 84.2761 36.0915C84.3598 36.1163 84.4437 36.1404 84.5276 36.1645C84.5868 36.1819 84.6459 36.1993 84.705 36.2168C84.8611 36.2629 85.0174 36.3083 85.1737 36.3536C85.3293 36.3987 85.4848 36.4444 85.6403 36.49C85.6705 36.4989 85.7008 36.5078 85.732 36.517C85.7927 36.5348 85.8534 36.5526 85.914 36.5704C85.9742 36.5881 86.0344 36.6057 86.0945 36.6234C86.4653 36.732 86.8353 36.8423 87.2035 36.9592C87.2553 36.9756 87.2553 36.9756 87.3082 36.9923C88.9095 37.507 90.3233 38.506 91.3138 39.869C91.331 39.8925 91.3481 39.916 91.3658 39.9403C91.5856 40.2459 91.7758 40.566 91.9536 40.8977C91.9708 40.9291 91.988 40.9605 92.0056 40.9929C92.4064 41.761 92.6313 42.608 92.8725 43.4359C92.915 43.5815 92.9579 43.727 93.0008 43.8725C93.0259 43.9578 93.051 44.0432 93.0761 44.1285C93.0924 44.184 93.1087 44.2395 93.1251 44.295C93.1993 44.5474 93.2735 44.7997 93.3429 45.0535C93.352 45.0862 93.3611 45.1189 93.3705 45.1526C93.393 45.2338 93.4149 45.3152 93.4367 45.3966C93.488 45.5292 93.5366 45.5955 93.6479 45.6829C93.7707 45.706 93.7707 45.706 93.8936 45.6829C94.0216 45.5475 94.0856 45.426 94.1378 45.2483C94.1513 45.203 94.1649 45.1576 94.1788 45.1109C94.193 45.062 94.2071 45.013 94.2216 44.9626C94.245 44.8839 94.2683 44.8052 94.2917 44.7265C94.3243 44.616 94.3566 44.5053 94.3888 44.3946C94.4283 44.2594 94.4681 44.1243 94.508 43.9892C94.5159 43.9627 94.5237 43.9362 94.5317 43.9089C94.5476 43.8553 94.5634 43.8018 94.5792 43.7482C94.603 43.6676 94.6268 43.587 94.6505 43.5064C94.762 43.1287 94.8757 42.7517 94.9917 42.3753C95.0136 42.3035 95.0136 42.3035 95.036 42.2302C95.3469 41.2276 95.8285 40.299 96.5143 39.5005C96.5443 39.4652 96.5744 39.4299 96.6054 39.3935C96.6958 39.2905 96.7885 39.1905 96.8828 39.0911C96.9014 39.0711 96.9201 39.0512 96.9393 39.0306C98.446 37.4251 100.481 36.8902 102.524 36.2895C102.569 36.2764 102.613 36.2632 102.659 36.2496C102.843 36.1953 103.027 36.1416 103.214 36.0944C103.29 36.0746 103.29 36.0746 103.368 36.0544C103.41 36.0445 103.452 36.0345 103.495 36.0242C103.628 35.9664 103.684 35.8965 103.762 35.7747C103.762 35.6468 103.762 35.6468 103.721 35.5291C103.596 35.4132 103.469 35.371 103.306 35.3236C103.255 35.3086 103.204 35.2935 103.152 35.278C103.125 35.2701 103.098 35.2622 103.069 35.2541C102.983 35.229 102.896 35.2035 102.809 35.1779C102.655 35.1323 102.5 35.0872 102.346 35.0421C101.605 34.8261 100.865 34.6095 100.133 34.366C100.059 34.3412 100.059 34.3412 99.9823 34.316C98.9726 33.976 98.0833 33.4266 97.3007 32.7048C97.222 32.6328 97.1417 32.5645 97.0594 32.4967C96.9012 32.3613 96.7697 32.2091 96.6371 32.0489C96.6107 32.0178 96.6107 32.0178 96.5838 31.9861C95.778 31.0337 95.2676 29.9366 94.9064 28.75C94.8729 28.64 94.839 28.5301 94.8051 28.4202C94.6807 28.0157 94.5605 27.6101 94.444 27.2033C94.4201 27.1205 94.3963 27.0378 94.3724 26.9551C94.3267 26.7965 94.2819 26.6377 94.2376 26.4788C94.2168 26.4062 94.196 26.3336 94.1751 26.2611C94.1617 26.2117 94.1617 26.2117 94.1481 26.1614C94.0817 25.9344 93.9927 25.7056 93.7247 25.7002Z" fill="white"/>
</svg>
